<svg version="1.1" xmlns="http://www.w3.org/2000/svg" xmlns:xlink="http://www.w3.org/1999/xlink" width="27.25" height="32.25" viewBox="0,0,27.25,32.25"><g transform="translate(-226.375,-163.875)"><g data-paper-data="{&quot;isPaintingLayer&quot;:true}" fill-rule="nonzero" stroke-linecap="butt" stroke-linejoin="miter" stroke-miterlimit="10" stroke-dasharray="" stroke-dashoffset="0" style="mix-blend-mode: normal"><path d="M227.125,195.375v-30.75h25.75v30.75z" fill="#ffffff" stroke="#000000" stroke-width="1.5"/><path d="M231.125,182.75c0,-4.76345 3.86155,-8.625 8.625,-8.625c4.76345,0 8.625,3.86155 8.625,8.625c0,4.76345 -3.86155,8.625 -8.625,8.625c-4.76345,0 -8.625,-3.86155 -8.625,-8.625z" fill="#000000" stroke="#000000" stroke-width="1.5"/><path d="M230.0625,180.775c0,-4.0731 3.3019,-7.375 7.375,-7.375c4.0731,0 7.375,3.3019 7.375,7.375c0,4.0731 -3.3019,7.375 -7.375,7.375c-4.0731,0 -7.375,-3.3019 -7.375,-7.375z" fill="#ffffff" stroke="none" stroke-width="0"/></g></g></svg>