<svg version="1.1" xmlns="http://www.w3.org/2000/svg" xmlns:xlink="http://www.w3.org/1999/xlink" width="177.5" height="153.24999" viewBox="0,0,177.5,153.24999"><g transform="translate(-151.25,-56.20002)"><g data-paper-data="{&quot;isPaintingLayer&quot;:true}" fill-rule="nonzero" stroke-linecap="butt" stroke-linejoin="miter" stroke-miterlimit="10" stroke-dasharray="" stroke-dashoffset="0" style="mix-blend-mode: normal"><g stroke="none" stroke-width="0"><path d="M191.5,106.70002c0,-27.89038 22.60962,-50.5 50.5,-50.5c27.89038,0 50.5,22.60962 50.5,50.5c0,27.89038 -22.60962,50.5 -50.5,50.5c-27.89038,0 -50.5,-22.60962 -50.5,-50.5z" fill="#a0a0a0"/><path d="M223.5,94.20002c0,-10.49341 8.50659,-19 19,-19c10.49341,0 19,8.50659 19,19c0,10.49341 -8.50659,19 -19,19c-10.49341,0 -19,-8.50659 -19,-19z" fill="#ffffff"/><path d="M217.5,142.89779c0,-15.29707 10.96902,-27.69779 24.5,-27.69779c13.53098,0 24.5,12.40072 24.5,27.69779c0,15.29707 -49,15.29706 -49,0z" fill="#ffffff"/></g><path d="M151.5,209.20001v-34h177v34z" fill="#afafaf" stroke="#000000" stroke-width="0.5"/><text transform="translate(162.25,198.60002) scale(0.5,0.5)" font-size="40" xml:space="preserve" fill="#000000" fill-rule="nonzero" stroke="none" stroke-width="1" stroke-linecap="butt" stroke-linejoin="miter" stroke-miterlimit="10" stroke-dasharray="" stroke-dashoffset="0" font-family="Sans Serif" font-weight="normal" text-anchor="start" style="mix-blend-mode: normal"><tspan x="0" dy="0">PIN</tspan></text></g></g></svg>