<svg version="1.1" xmlns="http://www.w3.org/2000/svg" xmlns:xlink="http://www.w3.org/1999/xlink" width="79.57808" height="85.58408" viewBox="0,0,79.57808,85.58408"><g transform="translate(-199.46021,-136.00676)"><g data-paper-data="{&quot;isPaintingLayer&quot;:true}" fill-rule="nonzero" stroke-linecap="butt" stroke-linejoin="miter" stroke-miterlimit="10" stroke-dasharray="" stroke-dashoffset="0" style="mix-blend-mode: normal"><path d="M200.21021,220.84084v-84.08408h78.07808v84.08408z" fill="none" stroke="#000000" stroke-width="1.5"/><text transform="translate(217.53561,212.01013) scale(0.5,0.5)" font-size="40" xml:space="preserve" fill="#ffffff" fill-rule="nonzero" stroke="none" stroke-width="1" stroke-linecap="butt" stroke-linejoin="miter" stroke-miterlimit="10" stroke-dasharray="" stroke-dashoffset="0" font-family="Sans Serif" font-weight="normal" text-anchor="start" style="mix-blend-mode: normal"><tspan x="0" dy="0">画图</tspan></text><path d="M266.32815,158.00572c5.33652,10.29854 -2.17339,24.78043 -16.77389,32.34612c-3.50383,1.81563 -11.82421,7.02749 -14.71241,5.74215c-3.24079,-1.44222 4.82913,-20.98108 1.33433,-21.50781c-0.31371,-0.04728 -12.41967,18.68473 -15.38277,19.17632c-2.76344,0.45844 -6.1368,-6.04016 -7.33832,-8.35891c-5.33651,-10.29854 2.17338,-24.78044 16.77388,-32.34612c14.6005,-7.56569 30.76264,-5.35028 36.09915,4.94827z" fill="#dadada" stroke="#c5c5c5" stroke-width="0.5"/><path d="M222.34564,171.43881c0,-1.90872 1.54732,-3.45603 3.45603,-3.45603c1.90872,0 3.45603,1.54732 3.45603,3.45603c0,1.90872 -1.54732,3.45603 -3.45603,3.45603c-1.90872,0 -3.45603,-1.54732 -3.45603,-3.45603z" fill="#fff5b3" stroke="none" stroke-width="0.5"/><path d="M225.53581,161.60243c0,-1.90872 1.54732,-3.45603 3.45602,-3.45603c1.90872,0 3.45603,1.54732 3.45603,3.45603c0,1.90872 -1.54732,3.45602 -3.45603,3.45602c-1.90872,0 -3.45602,-1.5473 -3.45602,-3.45602z" fill="#fff5b3" stroke="none" stroke-width="0.5"/><path d="M243.08179,179.41424c0,-1.90872 1.54731,-3.45603 3.45603,-3.45603c1.90872,0 3.45602,1.54732 3.45602,3.45603c0,1.90872 -1.54731,3.45602 -3.45602,3.45602c-1.90872,0 -3.45603,-1.5473 -3.45603,-3.45602z" fill="#fff5b3" stroke="none" stroke-width="0.5"/><path d="M255.3108,169.04617c0,-1.90872 1.5473,-3.45602 3.45602,-3.45602c1.9087,0 3.45603,1.54732 3.45603,3.45602c0,1.90872 -1.5473,3.45602 -3.45603,3.45602c-1.90872,0 -3.45602,-1.54732 -3.45602,-3.45602z" fill="#fff5b3" stroke="none" stroke-width="0.5"/><path d="M239.62576,166.65353c0,-1.90872 1.54732,-3.45602 3.45602,-3.45602c1.90872,0 3.45603,1.54732 3.45603,3.45602c0,1.90872 -1.54731,3.45603 -3.45603,3.45603c-1.90872,0 -3.45602,-1.54731 -3.45602,-3.45603z" fill="#c5ff94" stroke="none" stroke-width="0.5"/><path d="M233.7771,158.41224c0,-1.90872 1.54731,-3.45603 3.45603,-3.45603c1.90872,0 3.45602,1.54732 3.45602,3.45603c0,1.90872 -1.54732,3.45603 -3.45602,3.45603c-1.90872,0 -3.45603,-1.54731 -3.45603,-3.45603z" fill="#c5ff94" stroke="none" stroke-width="0.5"/><path d="M218.09207,179.41424c0,-1.90872 1.54732,-3.45603 3.45603,-3.45603c1.90872,0 3.45603,1.54732 3.45603,3.45603c0,1.90872 -1.54731,3.45602 -3.45603,3.45602c-1.90872,0 -3.45603,-1.5473 -3.45603,-3.45602z" fill="#c5ff94" stroke="none" stroke-width="0.5"/><path d="M231.11862,168.24862c0,-1.90872 1.5473,-3.45602 3.45602,-3.45602c1.90872,0 3.45603,1.5473 3.45603,3.45602c0,1.90872 -1.54732,3.45603 -3.45603,3.45603c-1.90872,0 -3.45602,-1.54732 -3.45602,-3.45603z" fill="#94ffc1" stroke="none" stroke-width="0.5"/><path d="M252.12062,177.28746c0,-1.9087 1.54731,-3.45602 3.45603,-3.45602c1.90871,0 3.45602,1.54732 3.45602,3.45602c0,1.90872 -1.54731,3.45603 -3.45602,3.45603c-1.9087,0 -3.45603,-1.54732 -3.45603,-3.45603z" fill="#94ffc1" stroke="none" stroke-width="0.5"/><path d="M246.53781,158.41224c0,-1.90872 1.54731,-3.45603 3.45602,-3.45603c1.90872,0 3.45603,1.54732 3.45603,3.45603c0,1.90872 -1.54731,3.45603 -3.45603,3.45603c-1.90872,0 -3.45602,-1.54731 -3.45602,-3.45603z" fill="#ff9494" stroke="none" stroke-width="0.5"/><path d="M247.0695,167.98277c0,-1.90872 1.5473,-3.45602 3.45602,-3.45602c1.90872,0 3.45603,1.54732 3.45603,3.45602c0,1.90872 -1.54732,3.45603 -3.45603,3.45603c-1.90872,0 -3.45602,-1.54732 -3.45602,-3.45603z" fill="#ff9494" stroke="none" stroke-width="0.5"/><path d="M254.51326,161.60243c0,-1.90872 1.54731,-3.45603 3.45603,-3.45603c1.90872,0 3.45602,1.54732 3.45602,3.45603c0,1.90872 -1.5473,3.45602 -3.45602,3.45602c-1.9087,0 -3.45603,-1.5473 -3.45603,-3.45602z" fill="#ff9494" stroke="none" stroke-width="0.5"/><path d="M238.03067,186.06045c0,-1.90872 1.54732,-3.45603 3.45603,-3.45603c1.90872,0 3.45602,1.54731 3.45602,3.45603c0,1.90872 -1.54732,3.45603 -3.45602,3.45603c-1.90872,0 -3.45603,-1.54731 -3.45603,-3.45603z" fill="#a6f2ff" stroke="none" stroke-width="0.5"/></g></g></svg>